<?xml version="1.0" encoding="utf-8"?>
<!-- Generator: Adobe Illustrator 24.3.0, SVG Export Plug-In . SVG Version: 6.00 Build 0)  -->
<svg version="1.1" id="Layer_1" xmlns="http://www.w3.org/2000/svg" xmlns:xlink="http://www.w3.org/1999/xlink" x="0px" y="0px"
	 viewBox="0 0 400 200" style="enable-background:new 0 0 400 200;" xml:space="preserve">
<style type="text/css">
	.st0{fill:#E0B03C;}
	.st1{fill:#36B0A7;}
	.st2{fill:#075384;}
</style>
<g>
	<g>
		<polygon class="st0" points="160.54,146.6 164.39,150.51 168.42,146.48 164.57,142.57 		"/>
		
			<rect x="170.43" y="143.77" transform="matrix(0.707 -0.7072 0.7072 0.707 -52.8604 165.4912)" class="st0" width="5.7" height="5.53"/>
		<path class="st0" d="M282.49,129.69c-1.36-1.8-3.69-3.16-7.02-3.92c-0.68-0.18-1.5-0.24-2.51-0.24h-11.42l-3.16,4.87h13.31
			c2.86,0,4.96,0.12,6.87,2.63c0.71,0.97,0.89,2.15,0.53,3.51h-37.48h-2.33h-0.59c-1.39-0.24-2.09-0.94-2.09-2.18
			c0-0.12,0-0.29,0.06-0.53l0.59-2.57c2.15-9.15,2.57-11.19,2.98-12.78l-6.87,2.09c0.18,0.53,0.24,1.24,0.24,2.07
			c0,0.62-0.24,1.86-0.65,3.78c-1.18,4.99-1.36,7.27-3.18,8.95c-0.91,0.83-2.39,1.24-4.43,1.18h-0.47c0.41-1.12,0.94-2.86,1.48-5.28
			c2.15-9.15,2.57-11.19,2.92-12.78l-6.82,2.09c0.18,0.53,0.3,1.24,0.3,2.07c0,0.62-0.24,1.86-0.71,3.78
			c-0.59,2.51-0.38,1.72-1,4.29c-1,4.48-2.66,5.9-6.55,5.84h-0.59c0.41-1.12,0.94-2.86,1.48-5.28c2.15-9.15,2.57-11.19,2.92-12.78
			l-6.82,2.09c0.18,0.53,0.24,1.24,0.24,2.07c0,0.62-0.24,1.86-0.71,3.78c-0.53,2.51-0.38,1.72-1.03,4.29
			c-0.97,4.48-2.45,5.84-6.58,5.84h-1.48h-0.53c-1.45,0-2.15-0.59-2.15-1.77c0-0.29,0.06-0.71,0.18-1.21l0.29-2.01
			c0.91-4.13,0.68-11.51-6.31-14.93c-1.8-0.89-3.75-1.36-5.78-1.42c-1.48,0.06-2.86,0.35-4.19,0.94v0.06h-0.06
			c-1.12,4.6-3.04,12.54-3.51,14.25c-0.59,2.74-1.24,4.43-1.98,5.19c-0.71,0.59-2.24,0.89-4.57,0.89h-8.94
			c-4.25-0.18-6.99-2.71-8.23-7.67c-2.74,3.27-2.39,6.79,0.65,9.29c1.92,1.74,4.54,2.63,7.76,2.63h13.04c2.63,0,4.48-1.12,5.61-3.39
			c0.38-0.65,0.8-1.74,1.21-3.27c0.29-1.33,0.59-2.33,0.77-3.04c1.56-7.05,2.45-10.74,2.51-10.98c2.27-0.62,6.43,0.53,6.82,6.14
			c0.12,1.92-0.03,4.28-0.5,7.02l-0.12,0.74c-0.18,0.83-0.24,1.42-0.24,1.83c-0.24,3.22,3.04,4.96,5.84,4.96h2.45h2.33h3.45
			c2.63,0,4.51-1.06,5.72-3.22c0.12-0.24,0.18-0.47,0.24-0.65c0.89,2.57,2.57,3.86,5.07,3.86c2.63,0,4.57-1.06,5.66-3.22
			c0.06-0.12,0.18-0.3,0.24-0.47c0.94,2.45,2.63,3.69,5.02,3.69c1.59,0,2.86-0.35,3.98-1.12c0.94,0.77,1.98,1.12,3.16,1.12h2.51
			h2.33h38.66c1.56,0,2.74-1.06,3.36-3.22c0.18-0.41,0.24-1.03,0.29-1.92C284.12,133.37,283.61,131.37,282.49,129.69z"/>
	</g>
	<path class="st1" d="M271.39,114.09c-3.33,0.21-5.12,1.39-7.63,5.39l-2.2,3.33l-4.83,7.61h-5.05c1.75-2.54,6.34-9.78,8.73-13.56
		c2.32-3.58,4.9-5.14,7.8-4.67C269.11,112.32,270.18,112.94,271.39,114.09z"/>
	<g>
		<path class="st0" d="M301.05,109.18c0.41,1.12,0.47,2.39,0.12,3.86l-5.72,24.69c-0.18,0.83-0.47,1.92-0.83,3.33
			c0.94,0,1.95-0.18,2.92-0.53c2.01-0.77,3.16-1.98,3.57-3.75l6.79-29.71L301.05,109.18z"/>
		<polygon class="st0" points="337.17,111.21 333.31,107.29 329.22,111.32 333.14,115.29 		"/>
		<polygon class="st0" points="346.45,111.21 342.48,107.29 338.45,111.32 342.36,115.29 		"/>
		<path class="st0" d="M339.85,122.85c0,0.64-0.15,1.55-0.44,3.53c-0.02,0.14-0.27,1.21-0.28,1.25c-0.18,0.58-0.41,1.58-0.76,3.04
			c-1.22,5.14-1.92,5.84-6.6,5.84H321.5v0.01h-0.59c-1.39,0-2.09-0.59-2.09-1.77c0-0.24,0-0.53,0.06-0.89
			c2.68-11.48,3.16-14.29,3.39-15.17l-6.87,2.09c0.18,0.53,0.24,1.24,0.24,2.07c0,0.62-0.24,1.86-0.65,3.78
			c-1,4.04-2.24,10.28-2.89,13.08c-1.09,4.46-2.57,5.9-6.58,5.9h-0.83c1.68,1.95,3.51,2.86,5.43,2.86c5.31,0,6.08-3.39,7.23-7.88
			c0.53,0.12,1.12,0.18,1.65,0.18h4.84v0h12.21c5.31,0,6.13-3.15,7.59-9.52c1.99-8.58,2.3-10.45,2.82-12.55l-6.83,2.1
			C339.79,121.34,339.85,122.04,339.85,122.85z"/>
	</g>
</g>
<g>
	<g>
		<path class="st2" d="M148.09,65v32.3h-11.15V65h-17.52v-8.98h46.21V65H148.09z"/>
		<path class="st2" d="M214.81,64.95c-0.57-0.17-1.24-0.34-2-0.51c-0.76-0.17-1.6-0.31-2.51-0.43c-0.91-0.12-1.85-0.18-2.81-0.18
			c-2,0-3.87,0.25-5.6,0.74c-1.73,0.49-3.35,1.14-4.85,1.95c-1.5,0.81-2.9,1.73-4.19,2.76c-1.29,1.03-2.48,2.09-3.56,3.17v24.85
			h-11.15V56.01h11.15v6.7c1.34-1,2.72-1.97,4.13-2.9c1.41-0.93,2.88-1.76,4.42-2.48c1.53-0.72,3.15-1.3,4.85-1.73
			c1.7-0.43,3.51-0.64,5.41-0.64c0.72,0,1.46,0.03,2.21,0.1c0.75,0.07,1.48,0.16,2.19,0.26c0.71,0.1,1.38,0.21,2,0.33
			c0.62,0.12,1.16,0.24,1.62,0.36v9.34C215.82,65.26,215.38,65.12,214.81,64.95z"/>
		<path class="st2" d="M262.8,97.29v-4.06c-1.42,0.78-2.95,1.47-4.58,2.07c-1.63,0.6-3.33,1.11-5.09,1.53
			c-1.76,0.42-3.58,0.74-5.45,0.95c-1.87,0.21-3.76,0.31-5.66,0.31c-2.22,0-4.37-0.21-6.44-0.63c-2.07-0.42-3.91-1.1-5.51-2.04
			s-2.89-2.17-3.86-3.7s-1.46-3.38-1.46-5.59c0-2.78,0.76-5.1,2.28-6.96c1.52-1.85,3.85-3.37,6.97-4.55
			c3.13-1.18,7.08-2.09,11.85-2.73c4.78-0.64,10.43-1.14,16.96-1.5v-0.87c0-0.68-0.18-1.36-0.54-2.03
			c-0.36-0.67-1.02-1.26-1.97-1.77c-0.95-0.51-2.25-0.93-3.91-1.25c-1.65-0.32-3.76-0.48-6.32-0.48c-2.02,0-4.02,0.1-5.99,0.31
			c-1.97,0.21-3.88,0.5-5.71,0.86s-3.57,0.78-5.21,1.26c-1.64,0.48-3.14,0.98-4.48,1.5v-9.91c1.4-0.36,2.97-0.71,4.72-1.05
			c1.74-0.34,3.56-0.64,5.44-0.89c1.88-0.25,3.79-0.45,5.71-0.6c1.92-0.15,3.77-0.22,5.53-0.22c3.47,0,6.66,0.29,9.58,0.86
			c2.92,0.57,5.44,1.46,7.56,2.66c2.11,1.2,3.76,2.72,4.96,4.57c1.19,1.84,1.79,4.04,1.79,6.58v27.37H262.8z M262.8,78.46
			c-4.28,0.16-7.93,0.39-10.92,0.69c-2.99,0.3-5.48,0.65-7.47,1.05c-1.98,0.4-3.54,0.83-4.67,1.29c-1.13,0.46-1.98,0.93-2.54,1.41
			c-0.56,0.48-0.91,0.96-1.04,1.44c-0.13,0.48-0.2,0.92-0.2,1.32c0,0.48,0.13,0.95,0.39,1.4c0.26,0.45,0.72,0.85,1.37,1.19
			c0.65,0.34,1.52,0.61,2.6,0.81c1.08,0.2,2.44,0.3,4.09,0.3c1.82,0,3.61-0.14,5.35-0.42c1.74-0.28,3.4-0.67,4.96-1.16
			c1.56-0.49,3.03-1.07,4.4-1.74c1.37-0.67,2.6-1.39,3.68-2.15V78.46z"/>
		<path class="st2" d="M316.87,76.11l19.59,21.18h-13.37l-12.92-13.91l-12.86,13.91h-13.34l19.56-21.18l-18.6-20.1h13.37
			l11.87,12.92l11.93-12.92h13.37L316.87,76.11z"/>
		<g>
			<path class="st2" d="M357.64,56h-13.37l18.87,20.39c1.21-1.92,2.46-3.89,3.76-5.9c0.58-0.89,1.16-1.7,1.74-2.5L357.64,56z"/>
			<path class="st1" d="M392.82,56.27c-0.92-0.15-1.83-0.22-2.73-0.22c-6.91,0-13.1,4.36-18.92,13.32
				c-6.43,10.16-14.29,21.95-19.12,29.01h12.2l8.56-12.83l6.36-9.64c6.77-10.78,11.85-14.83,20.62-15.92
				C397.18,57.81,394.85,56.56,392.82,56.27z"/>
		</g>
	</g>
</g>
<g>
	<polygon class="st1" points="100.9,83.14 43,83.14 64.71,39.7 71.92,25.3 71.98,25.3 79.19,39.74 	"/>
	<polygon class="st2" points="144.32,169.98 79.19,143.94 79.19,97.62 108.13,97.62 117.22,115.77 	"/>
	<polygon class="st0" points="64.71,97.62 64.71,143.94 -0.42,169.98 26.68,115.77 35.75,97.62 	"/>
</g>
</svg>
